{
  "accessors": [
    {
      "bufferView": 2,
      "componentType": 5126,
      "count": 3083,
      "max": [
        8.170726776123047,
        2.643541097640991,
        1.797922968864441
      ],
      "min": [
        -7.050570011138916,
        -20.03680992126465,
        -2.180063009262085
      ],
      "type": "VEC3"
    },
    {
      "bufferView": 2,
      "byteOffset": 36996,
      "componentType": 5126,
      "count": 3083,
      "max": [
        1.0,
        1.0,
        1.0
      ],
      "min": [
        -1.0,
        -1.0,
        -1.0
      ],
      "type": "VEC3"
    },
    {
      "bufferView": 1,
      "componentType": 5126,
      "count": 3083,
      "max": [
        0.918516993522644,
        0.9591460227966309
      ],
      "min": [
        0.10589800029993057,
        0.04881799966096878
      ],
      "type": "VEC2"
    },
    {
      "bufferView": 0,
      "componentType": 5125,
      "count": 14376,
      "type": "SCALAR"
    },
    {
      "bufferView": 2,
      "byteOffset": 73992,
      "componentType": 5126,
      "count": 3620,
      "max": [
        7.334237098693848,
        12.554788589477539,
        1.797922968864441
      ],
      "min": [
        -8.170726776123047,
        -20.196544647216797,
        -1.9951770305633545
      ],
      "type": "VEC3"
    },
    {
      "bufferView": 2,
      "byteOffset": 117432,
      "componentType": 5126,
      "count": 3620,
      "max": [
        1.0,
        1.0,
        1.0
      ],
      "min": [
        -1.0,
        -1.0,
        -0.9999998807907104
      ],
      "type": "VEC3"
    },
    {
      "bufferView": 1,
      "byteOffset": 24664,
      "componentType": 5126,
      "count": 3620,
      "max": [
        0.8576679825782776,
        0.55314701795578
      ],
      "min": [
        0.10589800029993057,
        0.19198599457740784
      ],
      "type": "VEC2"
    },
    {
      "bufferView": 0,
      "byteOffset": 57504,
      "componentType": 5125,
      "count": 20496,
      "type": "SCALAR"
    }
  ],
  "asset": {
    "extras": {
      "author": "KevBot (https://sketchfab.com/boyle.kj)",
      "license": "CC-BY-4.0 (http://creativecommons.org/licenses/by/4.0/)",
      "source": "https://sketchfab.com/3d-models/nubian-royal-starship-f72431e7a97e4bf994dd8b1f3f288d7c",
      "title": "Nubian Royal Starship"
    },
    "generator": "Sketchfab-12.67.0",
    "version": "2.0"
  },
  "bufferViews": [
    {
      "buffer": 0,
      "byteLength": 139488,
      "name": "floatBufferViews",
      "target": 34963
    },
    {
      "buffer": 0,
      "byteLength": 53624,
      "byteOffset": 139488,
      "byteStride": 8,
      "name": "floatBufferViews",
      "target": 34962
    },
    {
      "buffer": 0,
      "byteLength": 160872,
      "byteOffset": 193112,
      "byteStride": 12,
      "name": "floatBufferViews",
      "target": 34962
    }
  ],
  "buffers": [
    {
      "byteLength": 353984,
      "uri": "scene.bin"
    }
  ],
  "images": [
    {
      "uri": "textures/Scene_-_Root_baseColor.png"
    },
    {
      "uri": "textures/Scene_-_Root_metallicRoughness.png"
    },
    {
      "uri": "textures/Scene_-_Root_emissive.png"
    }
  ],
  "materials": [
    {
      "alphaMode": "BLEND",
      "doubleSided": true,
      "emissiveFactor": [
        1.0,
        1.0,
        1.0
      ],
      "emissiveTexture": {
        "index": 2
      },
      "name": "Scene_-_Root",
      "pbrMetallicRoughness": {
        "baseColorTexture": {
          "index": 0
        },
        "metallicFactor": 0.0,
        "metallicRoughnessTexture": {
          "index": 1
        }
      }
    }
  ],
  "meshes": [
    {
      "name": "Object_0",
      "primitives": [
        {
          "attributes": {
            "NORMAL": 1,
            "POSITION": 0,
            "TEXCOORD_0": 2
          },
          "indices": 3,
          "material": 0,
          "mode": 4
        }
      ]
    },
    {
      "name": "Object_1",
      "primitives": [
        {
          "attributes": {
            "NORMAL": 5,
            "POSITION": 4,
            "TEXCOORD_0": 6
          },
          "indices": 7,
          "material": 0,
          "mode": 4
        }
      ]
    }
  ],
  "nodes": [
    {
      "children": [
        1
      ],
      "matrix": [
        1.0,
        0.0,
        0.0,
        0.0,
        0.0,
        2.220446049250313e-16,
        -1.0,
        0.0,
        0.0,
        1.0,
        2.220446049250313e-16,
        0.0,
        0.0,
        0.0,
        0.0,
        1.0
      ],
      "name": "Sketchfab_model"
    },
    {
      "children": [
        2,
        3
      ],
      "name": "NubianRoyalStarship.obj.cleaner.materialmerger.gles"
    },
    {
      "mesh": 0,
      "name": "Object_2"
    },
    {
      "mesh": 1,
      "name": "Object_3"
    }
  ],
  "samplers": [
    {
      "magFilter": 9729,
      "minFilter": 9987,
      "wrapS": 10497,
      "wrapT": 10497
    }
  ],
  "scene": 0,
  "scenes": [
    {
      "name": "Sketchfab_Scene",
      "nodes": [
        0
      ]
    }
  ],
  "textures": [
    {
      "sampler": 0,
      "source": 0
    },
    {
      "sampler": 0,
      "source": 1
    },
    {
      "sampler": 0,
      "source": 2
    }
  ]
}
